<svg xmlns="http://www.w3.org/2000/svg" viewBox="0 0 290 282"><g stroke-width="2" fill="none"><path stroke="#8269b6" vector-effect="non-scaling-stroke" d="M178.21 54.21q2.83.74 5.49 1.66c4.09 1.4 7.68 4.77 11.22 7.31 6.2 4.43 11.16 13.27 14.81 19.85q.25.46.56.03 5.91-8.34 4.84-18.72-.04-.38.33-.35.16.01.29.01.53.02.18-.43-.07-.09-.2-.15"/><path stroke="#8269b6" vector-effect="non-scaling-stroke" d="M218.2 65.35q.64 9.76-4.89 18.34c-.43.68-1.41 1.18-1.66 1.9q-.22.66.27 1.69 4.57 9.44 7.5 19.49a.35.34-40 0 0 .64.05c5.45-10.9 6.2-21.46 7.67-33.32q.06-.47.26-.91.61-1.3 1.79-.64a1.47 1.46-73.7 0 1 .75 1.38c-.71 12.31-2.57 26.09-9.22 36.85q-.29.47-.16 1.01 3.44 14.22 4.43 28.81.05.73.45.12c4.22-6.54 10.56-14.31 13.62-23.15 3.5-10.14 2.96-23.11 2.53-34.09"/><path stroke="#8269b6" vector-effect="non-scaling-stroke" d="M245.26 85.96c.2 14.88.7 29.05-7.98 42.56q-2.12 3.31-4.16 6.45-.25.38.21.43 18.91 2.17 35.04-6.17"/><path stroke="#8269b6" vector-effect="non-scaling-stroke" d="M268.97 132.45q-18.17 8.58-37.54 5.62-.51-.08-.81.34c-2.1 2.92-8.21 8.35-2.11 11.32 10.49 5.1 21.21 5.94 33.25 4.55 3.5-.4 6.14-1.8 9.19-3.37"/><path stroke="#8269b6" vector-effect="non-scaling-stroke" d="M270.5 154.46c-13.43 6.5-31.44 3.63-44.29-2.69q-.32-.16-.34.2l-.58 11.8a1.08 1.01 31.1 0 0 .17.6c5.92 9.15 19.56 13.5 29.42 14.16"/><path stroke="#7256ab" vector-effect="non-scaling-stroke" d="M254.88 178.53q5.39.59 9.94-.22m-2.12 3.85-11.59-.88q-.47-.03-.64.41-7.07 18.93-19.49 35.96"/><path stroke="#7256ab" vector-effect="non-scaling-stroke" d="M219.68 225.63q17.59-18.34 27.5-43.17"/><path stroke="#8269b6" vector-effect="non-scaling-stroke" d="M247.18 182.46q.39-.43.53-1.29.09-.55-.45-.71l-5.57-1.66a1.41 1.4-70.8 0 0-1.7.83q-1.21 3.03-4.31 5.92"/><path stroke="#7256ab" vector-effect="non-scaling-stroke" d="M235.68 185.55q-8.17 8.19-19.11 13.83-.46.24-.97.13-1-.22-1.33.48-9.19 19.62-22.57 33.38m-5.88.35q5.38-3.45 9.99-9.41 11.61-14.98 18.55-31.88"/><path stroke="#8269b6" vector-effect="non-scaling-stroke" d="M214.36 192.43q5.47-12.57 7.12-24.18c4.59-32.27-2.26-66.48-20.32-93.47-5.16-7.71-15.81-17.85-25.5-18.17q-.53-.01-.6-.54-.12-1.07-.54-1.15"/><path stroke="#bba3e5" vector-effect="non-scaling-stroke" d="M266.56 170.82c-2.57-4.65-6.12 2.16-7.71 3.7q-1.96 1.9-3.97 4.01m-7.7 3.93-11.5 3.09m-21.32 6.88-17.18 2.2"/><path stroke="#8269b6" vector-effect="non-scaling-stroke" d="M197.18 194.63c9.61-19.78 12.69-40.26 10.45-61.81-1.13-10.89-4.8-23.27-8.63-33.34q-8.59-22.54-28.21-38.26-3.09-2.48-11.5-4.73"/><path stroke="#7256ab" vector-effect="non-scaling-stroke" d="M197.18 194.63q-8.08 17.54-18.49 32.56-2.37 3.44-6.23 5.59m-3.92-.26c2.48-2.82 5.48-4.1 7.6-7.13q10.05-14.3 17.45-30.38"/><path stroke="#8269b6" vector-effect="non-scaling-stroke" d="M193.59 195.01c12.16-24.18 15.42-51.9 7.76-78.07-4.34-14.81-8.85-27.24-18.54-39.5-4.6-5.82-10.64-12.32-16.12-15.4q-2.09-1.18-9.12-2.88-.54-.13-.7-.66-.25-.81-.03-2.18"/><path stroke="#bba3e5" vector-effect="non-scaling-stroke" d="m193.59 195.01-17.32-.23"/><path stroke="#8269b6" vector-effect="non-scaling-stroke" d="M176.27 194.78q10.94-33.81 4.73-68.22c-4.39-24.29-12.96-51.46-38.2-61.61-2.89-1.17-5.75.17-8.85-.37"/><path stroke="#7256ab" vector-effect="non-scaling-stroke" d="M176.27 194.78q-6.91 19.12-17.07 36.05m-3.37-1.03 6.09-10.11q.27-.45-.16-.74c-8.98-6.05-14.88-19.55-17.57-29.94"/><path stroke="#8269b6" vector-effect="non-scaling-stroke" d="m144.19 189.01-2.09-12.51q-.08-.5-.58-.43l-15.07 2.03"/><path stroke="#7256ab" vector-effect="non-scaling-stroke" d="M126.45 178.1q-16.91 2.09-33.16-1.41m-1.39-4.12q2.08 1.1 5.35 1.68 13.04 2.33 24.6 1.25"/><path stroke="#8269b6" vector-effect="non-scaling-stroke" d="M121.85 175.5c6.7-.89 13.38-1.31 19.72-2.47q8.58-1.58 17.18-3.05 6.49-1.11 20.46-6.66.48-.19.5-.71l.39-10.07q.02-.69-.66-.56c-16.7 3.31-33.49 4.83-50.7 3.59-8.89-.63-17.51-1.08-26.26-3.02"/><path stroke="#7256ab" vector-effect="non-scaling-stroke" d="M102.48 152.55q-8.17-2-16.72-6.32m-.46-3.83q6.73 4.17 14.22 6"/><path stroke="#8269b6" vector-effect="non-scaling-stroke" d="M99.52 148.4q3.12 1.25 3.98 1.37 23.16 3.44 32 3.5 21.82.13 43.52-4.07a.99.98-6.5 0 0 .8-1l-.26-9.41q-.02-.61-.63-.54-18.72 2.06-31.68 0c-20.6-3.27-38.85-6.65-57.14-16.54"/><path stroke="#8269b6" vector-effect="non-scaling-stroke" d="M90.25 118.47c3.81 1.54 7.58 3.93 10.98 5.33 22.95 9.5 51.46 13.68 77.46 11.68a.73.73 0 0 0 .67-.84l-1.26-8.08q-.1-.62-.71-.7c-25.98-3.66-54.88-12.52-71.16-34.74"/><path stroke="#8269b6" vector-effect="non-scaling-stroke" d="M106.61 88.28q.45.41 1.23.57.48.1.78.49c15.99 21.74 42.51 28.59 67.27 33.77q1.16.24.99-.94c-2.99-20.25-13.7-45.9-34.1-53.94q-2.35-.93-5.35-.85-2.72.07-5.51.1"/><path stroke="#bba3e5" vector-effect="non-scaling-stroke" d="M144.19 189.01q-11.69-5.59-15.49-7.67-2.64-1.45-2.25-3.24m-23.97-25.55q8.52 13.42 19.37 22.95m-22.33-27.1-9.5-23.81q-.19-.49-.72-.56l-.56-.08"/><path stroke="#7256ab" vector-effect="non-scaling-stroke" d="m218.35 190.9-1.95 4.51q-.22.51.29.3 5.31-2.25 9.73-6.22"/><path stroke="#8269b6" vector-effect="non-scaling-stroke" d="M226.42 189.49c3.95-2.78 9.52-7.16 11.4-11.49a.58.58 0 0 0-.33-.77q-7.35-2.82-12.58-8.64-.48-.54-.58.17-1.61 11.19-5.98 22.14"/><path stroke="#bba3e5" vector-effect="non-scaling-stroke" d="M226.42 189.49q-3.75-.18-8.07 1.41"/><path stroke="#7256ab" vector-effect="non-scaling-stroke" d="M147.51 189.72c2.59 9.37 7.87 20.72 15.67 26.56q.42.31.63-.17l9.13-20.94"/><path stroke="#8269b6" vector-effect="non-scaling-stroke" d="M172.94 195.17q4.67-13.69 6.38-28.26a.41.41 0 0 0-.56-.43q-15.92 6.53-33.01 8.76a1.06 1.05-9.5 0 0-.9 1.25l2.66 13.23"/><path stroke="#bba3e5" vector-effect="non-scaling-stroke" d="M172.94 195.17q-13.13.49-25.43-5.45"/></g><path fill="#381c7c" d="M178.21 54.21q2.83.74 5.49 1.66c4.09 1.4 7.68 4.77 11.22 7.31 6.2 4.43 11.16 13.27 14.81 19.85q.25.46.56.03 5.91-8.34 4.84-18.72-.04-.38.33-.35.16.01.29.01.53.02.18-.43-.07-.09-.2-.15c1.56-.72 2.56.22 2.47 1.93q.64 9.76-4.89 18.34c-.43.68-1.41 1.18-1.66 1.9q-.22.66.27 1.69 4.57 9.44 7.5 19.49a.35.34-40 0 0 .64.05c5.45-10.9 6.2-21.46 7.67-33.32q.06-.47.26-.91.61-1.3 1.79-.64a1.47 1.46-73.7 0 1 .75 1.38c-.71 12.31-2.57 26.09-9.22 36.85q-.29.47-.16 1.01 3.44 14.22 4.43 28.81.05.73.45.12c4.22-6.54 10.56-14.31 13.62-23.15 3.5-10.14 2.96-23.11 2.53-34.09q2.97.07 3.08 3.08c.2 14.88.7 29.05-7.98 42.56q-2.12 3.31-4.16 6.45-.25.38.21.43 18.91 2.17 35.04-6.17 2.71.45.6 3.22-18.17 8.58-37.54 5.62-.51-.08-.81.34c-2.1 2.92-8.21 8.35-2.11 11.32 10.49 5.1 21.21 5.94 33.25 4.55 3.5-.4 6.14-1.8 9.19-3.37q2.49 2.31-.45 3.55c-13.43 6.5-31.44 3.63-44.29-2.69q-.32-.16-.34.2l-.58 11.8a1.08 1.01 31.1 0 0 .17.6c5.92 9.15 19.56 13.5 29.42 14.16q5.39.59 9.94-.22 1.52.8.69 2.4-.24.47-.72.65l-2.09.8-11.59-.88q-.47-.03-.64.41-7.07 18.93-19.49 35.96-3.85 4.79-8.29 8.54-1.53 1.28-3.01-.56 17.59-18.34 27.5-43.17.39-.43.53-1.29.09-.55-.45-.71l-5.57-1.66a1.41 1.4-70.8 0 0-1.7.83q-1.21 3.03-4.31 5.92-8.17 8.19-19.11 13.83-.46.24-.97.13-1-.22-1.33.48-9.19 19.62-22.57 33.38-4.66 3.98-5.88.35 5.38-3.45 9.99-9.41 11.61-14.98 18.55-31.88 5.47-12.57 7.12-24.18c4.59-32.27-2.26-66.48-20.32-93.47-5.16-7.71-15.81-17.85-25.5-18.17q-.53-.01-.6-.54-.12-1.07-.54-1.15 1.77-1.31 3.69-.71Zm40.14 136.69-1.95 4.51q-.22.51.29.3 5.31-2.25 9.73-6.22c3.95-2.78 9.52-7.16 11.4-11.49a.58.58 0 0 0-.33-.77q-7.35-2.82-12.58-8.64-.48-.54-.58.17-1.61 11.19-5.98 22.14Z"/><path fill="#cbb6ef" d="M178.21 54.21q6.57 1.21 13.02 1.97 4.57.53 15.33 3.79c2.13.64 9.06 3.49 9.17 3.45q.13.06.2.15.35.45-.18.43-.13 0-.29-.01-.37-.03-.33.35 1.07 10.38-4.84 18.72-.31.43-.56-.03c-3.65-6.58-8.61-15.42-14.81-19.85-3.54-2.54-7.13-5.91-11.22-7.31q-2.66-.92-5.49-1.66Z"/><path fill="#cbb6ef" d="M174.52 54.92q.42.08.54 1.15.07.53.6.54c9.69.32 20.34 10.46 25.5 18.17 18.06 26.99 24.91 61.2 20.32 93.47q-1.65 11.61-7.12 24.18l-17.18 2.2c9.61-19.78 12.69-40.26 10.45-61.81-1.13-10.89-4.8-23.27-8.63-33.34q-8.59-22.54-28.21-38.26-3.09-2.48-11.5-4.73l15.23-1.57Z"/><path fill="#381c7c" d="M159.29 56.49q8.41 2.25 11.5 4.73Q190.41 76.94 199 99.48c3.83 10.07 7.5 22.45 8.63 33.34 2.24 21.55-.84 42.03-10.45 61.81q-8.08 17.54-18.49 32.56-2.37 3.44-6.23 5.59-1.03 1.69-2.45 1.45-.48-.08-.66-.53-.29-.73-.81-1.18c2.48-2.82 5.48-4.1 7.6-7.13q10.05-14.3 17.45-30.38c12.16-24.18 15.42-51.9 7.76-78.07-4.34-14.81-8.85-27.24-18.54-39.5-4.6-5.82-10.64-12.32-16.12-15.4q-2.09-1.18-9.12-2.88-.54-.13-.7-.66-.25-.81-.03-2.18 2.67-.9 2.45.17Z"/><path fill="#cbb6ef" d="M156.84 56.32q-.22 1.37.03 2.18.16.53.7.66 7.03 1.7 9.12 2.88c5.48 3.08 11.52 9.58 16.12 15.4 9.69 12.26 14.2 24.69 18.54 39.5 7.66 26.17 4.4 53.89-7.76 78.07l-17.32-.23q10.94-33.81 4.73-68.22c-4.39-24.29-12.96-51.46-38.2-61.61-2.89-1.17-5.75.17-8.85-.37 1.9-.47 3.51-.32 5.27-1.21q8.08-4.1 14.62-5.49 2.07-.44 3-1.56Z"/><path fill="#381c7c" d="M176.27 194.78q-6.91 19.12-17.07 36.05-.91 1.07-2.07 1.11-.55.02-.73-.5l-.57-1.64 6.09-10.11q.27-.45-.16-.74c-8.98-6.05-14.88-19.55-17.57-29.94l-2.09-12.51q-.08-.5-.58-.43l-15.07 2.03q-16.91 2.09-33.16-1.41-3.35-1.96-1.39-4.12 2.08 1.1 5.35 1.68 13.04 2.33 24.6 1.25c6.7-.89 13.38-1.31 19.72-2.47q8.58-1.58 17.18-3.05 6.49-1.11 20.46-6.66.48-.19.5-.71l.39-10.07q.02-.69-.66-.56c-16.7 3.31-33.49 4.83-50.7 3.59-8.89-.63-17.51-1.08-26.26-3.02q-8.17-2-16.72-6.32-1.56-1.44-.46-3.83 6.73 4.17 14.22 6 3.12 1.25 3.98 1.37 23.16 3.44 32 3.5 21.82.13 43.52-4.07a.99.98-6.5 0 0 .8-1l-.26-9.41q-.02-.61-.63-.54-18.72 2.06-31.68 0c-20.6-3.27-38.85-6.65-57.14-16.54l-.85-1.2a.9.89-49.7 0 1-.07-.93q.34-.65 1.06-1.11c3.81 1.54 7.58 3.93 10.98 5.33 22.95 9.5 51.46 13.68 77.46 11.68a.73.73 0 0 0 .67-.84l-1.26-8.08q-.1-.62-.71-.7c-25.98-3.66-54.88-12.52-71.16-34.74q-1.28-2.29.38-2.84.45.41 1.23.57.48.1.78.49c15.99 21.74 42.51 28.59 67.27 33.77q1.16.24.99-.94c-2.99-20.25-13.7-45.9-34.1-53.94q-2.35-.93-5.35-.85-2.72.07-5.51.1.16-2.6 2.03-2.9c3.1.54 5.96-.8 8.85.37 25.24 10.15 33.81 37.32 38.2 61.61q6.21 34.41-4.73 68.22Zm-28.76-5.06c2.59 9.37 7.87 20.72 15.67 26.56q.42.31.63-.17l9.13-20.94q4.67-13.69 6.38-28.26a.41.41 0 0 0-.56-.43q-15.92 6.53-33.01 8.76a1.06 1.05-9.5 0 0-.9 1.25l2.66 13.23Z"/><path fill="#cbb6ef" d="m218.2 65.35 9.62 5.72q.43.25.92.16 2.01-.38 2.18 1.66.05.58.5.95l10.76 9.04c.43 10.98.97 23.95-2.53 34.09-3.06 8.84-9.4 16.61-13.62 23.15q-.4.61-.45-.12-.99-14.59-4.43-28.81-.13-.54.16-1.01c6.65-10.76 8.51-24.54 9.22-36.85a1.47 1.46-73.7 0 0-.75-1.38q-1.18-.66-1.79.64-.2.44-.26.91c-1.47 11.86-2.22 22.42-7.67 33.32a.35.34-40 0 1-.64-.05q-2.93-10.05-7.5-19.49-.49-1.03-.27-1.69c.25-.72 1.23-1.22 1.66-1.9q5.53-8.58 4.89-18.34Zm-86.28 2.13q2.79-.03 5.51-.1 3-.08 5.35.85c20.4 8.04 31.11 33.69 34.1 53.94q.17 1.18-.99.94c-24.76-5.18-51.28-12.03-67.27-33.77q-.3-.39-.78-.49-.78-.16-1.23-.57l1.39-.33q.5-.12.81-.52c4.91-6.24 15.39-17.75 23.11-19.95Z"/><path fill="#cbb6ef" d="M245.26 85.96c11.56 12.71 19.44 26.58 23.11 43.27q-16.13 8.34-35.04 6.17-.46-.05-.21-.43 2.04-3.14 4.16-6.45c8.68-13.51 8.18-27.68 7.98-42.56Zm-139.03 5.16c16.28 22.22 45.18 31.08 71.16 34.74q.61.08.71.7l1.26 8.08a.73.73 0 0 1-.67.84c-26 2-54.51-2.18-77.46-11.68-3.4-1.4-7.17-3.79-10.98-5.33q5.92-13.64 15.05-25.64.45-.6.93-1.71Z"/><path fill="#cbb6ef" d="M90.11 121.71c18.29 9.89 36.54 13.27 57.14 16.54q12.96 2.06 31.68 0 .61-.07.63.54l.26 9.41a.99.98-6.5 0 1-.8 1q-21.7 4.2-43.52 4.07-8.84-.06-32-3.5-.86-.12-3.98-1.37l-9.5-23.81q-.19-.49-.72-.56l-.56-.08q.88-.9 1.37-2.24Z"/><path fill="#ab8fda" d="m88.74 123.95.56.08q.53.07.72.56l9.5 23.81q-7.49-1.83-14.22-6-.26-8.92 1.95-17.4.2-.78 1.49-1.05Z"/><path fill="#cbb6ef" d="m268.97 132.45 1.98 18.46c-3.05 1.57-5.69 2.97-9.19 3.37-12.04 1.39-22.76.55-33.25-4.55-6.1-2.97.01-8.4 2.11-11.32q.3-.42.81-.34 19.37 2.96 37.54-5.62Z"/><path fill="#ab8fda" d="M85.76 146.23q8.55 4.32 16.72 6.32 8.52 13.42 19.37 22.95-11.56 1.08-24.6-1.25-3.27-.58-5.35-1.68-5.09-12.84-6.14-26.34Z"/><path fill="#cbb6ef" d="M270.5 154.46q-.39 8.73-3.94 16.36c-2.57-4.65-6.12 2.16-7.71 3.7q-1.96 1.9-3.97 4.01c-9.86-.66-23.5-5.01-29.42-14.16a1.08 1.01 31.1 0 1-.17-.6l.58-11.8q.02-.36.34-.2c12.85 6.32 30.86 9.19 44.29 2.69ZM121.85 175.5q-10.85-9.53-19.37-22.95c8.75 1.94 17.37 2.39 26.26 3.02 17.21 1.24 34-.28 50.7-3.59q.68-.13.66.56l-.39 10.07q-.02.52-.5.71-13.97 5.55-20.46 6.66-8.6 1.47-17.18 3.05c-6.34 1.16-13.02 1.58-19.72 2.47Zm51.09 19.67q-13.13.49-25.43-5.45l-2.66-13.23a1.06 1.05-9.5 0 1 .9-1.25q17.09-2.23 33.01-8.76a.41.41 0 0 1 .56.43q-1.71 14.57-6.38 28.26Zm53.48-5.68q-3.75-.18-8.07 1.41 4.37-10.95 5.98-22.14.1-.71.58-.17 5.23 5.82 12.58 8.64a.58.58 0 0 1 .33.77c-1.88 4.33-7.45 8.71-11.4 11.49Z"/><path fill="#ab8fda" d="m266.56 170.82-1.74 7.49q-4.55.81-9.94.22 2.01-2.11 3.97-4.01c1.59-1.54 5.14-8.35 7.71-3.7Z"/><path fill="#cbb6ef" d="M144.19 189.01q-11.69-5.59-15.49-7.67-2.64-1.45-2.25-3.24l15.07-2.03q.5-.07.58.43l2.09 12.51Z"/><path fill="#ab8fda" d="M93.29 176.69q16.25 3.5 33.16 1.41-.39 1.79 2.25 3.24 3.8 2.08 15.49 7.67c2.69 10.39 8.59 23.89 17.57 29.94q.43.29.16.74l-6.09 10.11c-16.19-5.04-27.42-10.19-40.26-20.56a1.25 1.2 61 0 0-.9-.28c-4.67.46-9.87 1.97-13.33 2.77q-26.01 6.03-47.09 22.53-3.22 2.53-5.84 5.66-1.29 1.54-1.05 2.94.15.85.99.69c6.35-1.2 29.4-4.18 31.23 4.73.69 3.33-2.55 6.18-5.18 7.59q-11.12 5.99-22.42 1.85c-4.72-1.72-8.51-3.71-8.93-8.91a1.28 1.27-7.8 0 0-1.52-1.15q-13.91 2.77-26.55 9.17a1.24 1.23-83 0 1-1.49-1.91c4.08-4.76 22.79-9.26 29.13-10.62q.51-.11.72-.58 2.76-6.24 5.78-8.86 20.54-17.79 46.9-24.54 7.67-1.97 15.35-3.91.69-.18.25-.73c-7.31-9.27-13.62-17.48-18.33-28.99Zm-19.08 76.02c3.59-2.12 3-5.66-.85-6.6-8.44-2.05-17.97-1.14-26.44.34a1.55 1.55 0 0 0-1.25 1.86c.46 2.16 1.07 3.51 3.08 4.68q12.58 7.35 25.46-.28Z"/><path fill="#cbb6ef" d="m247.18 182.46-11.5 3.09q3.1-2.89 4.31-5.92a1.41 1.4-70.8 0 1 1.7-.83l5.57 1.66q.54.16.45.71-.14.86-.53 1.29Z"/><path fill="#ab8fda" d="M262.7 182.16q-10.9 21.65-31.72 35.49 12.42-17.03 19.49-35.96.17-.44.64-.41l11.59.88Z"/><path fill="#ab8fda" d="M247.18 182.46q-9.91 24.83-27.5 43.17-13.35 6.97-27.98 7.74 13.38-13.76 22.57-33.38.33-.7 1.33-.48.51.11.97-.13 10.94-5.64 19.11-13.83l11.5-3.09Zm-20.76 7.03q-4.42 3.97-9.73 6.22-.51.21-.29-.3l1.95-4.51q4.32-1.59 8.07-1.41Zm-78.91.23q12.3 5.94 25.43 5.45l-9.13 20.94q-.21.48-.63.17c-7.8-5.84-13.08-17.19-15.67-26.56Zm66.85 2.71q-6.94 16.9-18.55 31.88-4.61 5.96-9.99 9.41l-13.36-.94q3.86-2.15 6.23-5.59 10.41-15.02 18.49-32.56l17.18-2.2Zm-38.09 2.35 17.32.23q-7.4 16.08-17.45 30.38c-2.12 3.03-5.12 4.31-7.6 7.13l-9.34-1.69q10.16-16.93 17.07-36.05Z"/></svg>