<svg xmlns="http://www.w3.org/2000/svg" viewBox="0 0 309 282"><g stroke-width="2" fill="none"><path stroke="#a1710c" vector-effect="non-scaling-stroke" d="M188.72 50.58q11.24 6.91 14.95 10.76 4.75 4.94 11 16.77.28.54.73.13c4.5-4.04 5.79-13.86 5.62-19.27m2.24 1.22q1.22 11.81-5.97 20.8-.27.33-.12.73l7.91 20.29a.34.34 0 0 0 .63 0c1.89-4.72 3.97-9.13 4.76-14.22q1.64-10.54 3.34-20.99m2.2 1.61c-1.53 13.21-2.01 25.46-9.22 37.15a2.43 2.4-37.5 0 0-.27 1.95q3.83 13.35 4.25 27.26.05 1.85 1.03.28c7.04-11.28 13.94-18.62 15.15-32.75q1.02-11.85.41-24.27"/><path stroke="#a1710c" vector-effect="non-scaling-stroke" d="M250.31 80.78c1.04 18.66.28 34.62-12.03 49.52a.44.43-67.5 0 0 .29.71q18.77 2 35.32-6.38"/><path stroke="#a1710c" vector-effect="non-scaling-stroke" d="M274.8 127.56q-18.19 9.06-38.22 5.89-.5-.08-.72.37-1.72 3.41-4.31 6.13a2.45 2.44-46.4 0 0 .08 3.45c7.59 7.31 32.89 9.19 41.73 4.43q1.68-.9 3.34-1.74"/><path stroke="#a1710c" vector-effect="non-scaling-stroke" d="M276.22 150.32q-8.86 3.05-17.22 3.12c-8.3.07-20.39-1.44-27.26-6.54a.44.44 0 0 0-.7.34l-.45 11.72a1.72 1.66-61.5 0 0 .28 1c6.34 9.44 20.41 13.41 30.7 14.26"/><path stroke="#8a6311" vector-effect="non-scaling-stroke" d="m261.57 174.22 9.3.32m-1.43 2.84-12.79-.73q-.52-.03-.71.45c-6.43 15.65-12.44 26.02-22.48 40m-7.39 4.74-.11-1.71a1.03 1-24.7 0 1 .32-.82c11.17-10.24 19.85-26 25.73-40"/><path stroke="#a1710c" vector-effect="non-scaling-stroke" d="M252.01 179.31q1.23-1.49 1.13-2.81a.8.8 0 0 0-.62-.71l-5.86-1.41q-.47-.11-.7.31-2.23 4.04-5.51 7.02"/><path stroke="#8a6311" vector-effect="non-scaling-stroke" d="M240.45 181.71c-6.98 6.53-12.95 10.83-20.4 13.47q-.49.17-.71.64-8.46 18.61-22.31 33.41"/><path stroke="#8a6311" vector-effect="non-scaling-stroke" d="M191.23 229.97c2.17-2.24 4.66-4.14 6.6-6.37q13.26-15.25 21.29-34.45"/><path stroke="#a1710c" vector-effect="non-scaling-stroke" d="M219.12 189.15c8.44-18.29 10.11-37.79 8.46-57.73-1.86-22.3-9.2-43.35-21.63-61.97-4.59-6.87-15.83-17.35-24.6-17.09q-.53.01-.84-.42-.5-.72-.2-2.03"/><path stroke="#d19706" vector-effect="non-scaling-stroke" d="m219.12 189.15-16.88 1.8"/><path stroke="#a1710c" vector-effect="non-scaling-stroke" d="M202.24 190.95c15.67-32.78 14.71-66.75.65-99.37-5.52-12.8-13.15-22.88-23.21-31.98q-6.46-5.85-15.03-7.46"/><path stroke="#d19706" vector-effect="non-scaling-stroke" d="M272.7 165.44q-3.33-.15-4.7 1.59-4.08 5.16-6.43 7.19m-9.56 5.09-10.97 3.15q-.48.14-.57-.35-.03-.17-.02-.4"/><path stroke="#8a6311" vector-effect="non-scaling-stroke" d="M202.24 190.95q-8.09 17.07-19.12 33.15-1.24 1.8-6.54 4.89m-1.59.14q-1.22-1.97.59-3.05 4.19-2.5 6.55-5.98 9.27-13.7 16.32-28.51"/><path stroke="#a1710c" vector-effect="non-scaling-stroke" d="M198.45 191.59q13.58-26.57 12.18-55.92c-.58-12.07-3.59-23.52-7.58-35.24-5.71-16.78-20.75-42-39.59-45.78q-1.25-.25-1.82-2.08"/><path stroke="#d19706" vector-effect="non-scaling-stroke" d="m198.45 191.59-17.13-.51"/><path stroke="#a1710c" vector-effect="non-scaling-stroke" d="M181.32 191.08c8.28-23.45 9.05-50.47 4-74.85-3.55-17.15-9.55-33.36-21.4-45.87q-8.11-8.55-20.98-10.87"/><path stroke="#8a6311" vector-effect="non-scaling-stroke" d="M181.32 191.08q-7.01 19.05-17.17 35.95m-3.31-.87 6.55-10.94q.29-.47-.16-.79c-9.39-6.69-14.97-19.64-17.82-30.19"/><path stroke="#a1710c" vector-effect="non-scaling-stroke" d="m149.41 184.24-1.55-12.19q-.07-.58-.65-.5l-16.51 2.34"/><path stroke="#8a6311" vector-effect="non-scaling-stroke" d="M130.7 173.89q-15.48 1.9-31.71-1.62m-1.16-4.03c7.51 3.58 20.04 3.37 28.78 2.79"/><path stroke="#a1710c" vector-effect="non-scaling-stroke" d="M126.61 171.03c21.14-2.09 39.37-4.82 57.36-11.98a2.13 2.13 0 0 0 1.34-1.92l.26-9.3q.02-.56-.52-.45-37.29 7.65-75.45 1.02"/><path stroke="#8a6311" vector-effect="non-scaling-stroke" d="M109.6 148.4q-9.02-1.95-17.91-6.3m-.47-3.95q6.12 3.95 13.76 5.66"/><path stroke="#a1710c" vector-effect="non-scaling-stroke" d="M104.98 143.81c8.18 3.2 18.67 3.47 28.55 4.26 15.97 1.28 30.83-.02 46.28-2.56q2.54-.42 4.36-.99 1.2-.36 1.15-1.61l-.35-8.84q-.02-.48-.49-.41c-21.72 2.93-45.53-1.18-66.2-7q-12.44-3.5-23.26-10.09"/><path stroke="#a1710c" vector-effect="non-scaling-stroke" d="M95.94 113.73c10.58 5.82 21.79 10.38 32.74 12.61 21.22 4.31 35.89 6.27 54.75 4.75a1.13 1.13 0 0 0 1.02-1.28l-1.08-8.02a.68.68 0 0 0-.6-.59c-26.1-3.1-54.37-12.52-71.34-34.68"/><path stroke="#a1710c" vector-effect="non-scaling-stroke" d="M113.43 83.91c15.38 21.88 43.12 30.1 68.66 34.67q.54.09.44-.45c-3.98-21.6-14.37-48.2-36.47-55.22q-3.34-1.07-7.35.42a.6.6 0 0 1-.77-.34l-.7-1.69"/><path stroke="#d19706" vector-effect="non-scaling-stroke" d="M149.41 184.24q-10.74-2.85-18.71-10.35m-25.72-30.08q-4.44-11.54-8.54-22.75-.42-1.16-2.1-1.35m15.26 28.69q-.57 1.69 2.05 4.94 10.33 12.75 14.96 17.69"/><path stroke="#a1710c" vector-effect="non-scaling-stroke" d="M242.28 172.36q-6.82-2.52-11.62-7.95-.61-.7-.78.21-2.44 13.23-7.65 25.64a.4.4 0 0 0 .56.51c4.06-2.17 20.67-12.84 20.12-17.61q-.07-.59-.63-.8"/><path stroke="#8a6311" vector-effect="non-scaling-stroke" d="M153.08 186.31c3.05 9.04 7.75 19.49 15.27 25.31a.61.6-59.4 0 0 .92-.24l8.45-19.47"/><path stroke="#a1710c" vector-effect="non-scaling-stroke" d="M177.72 191.91q5.5-14.24 6.68-29.17.06-.84-.72-.53-15.84 6.21-32.71 8.65-.59.08-.48.67l2.59 14.78"/><path stroke="#d19706" vector-effect="non-scaling-stroke" d="M177.72 191.91q-12.2-.96-24.64-5.6"/></g><path fill="#5a3c17" d="M188.72 50.58q11.24 6.91 14.95 10.76 4.75 4.94 11 16.77.28.54.73.13c4.5-4.04 5.79-13.86 5.62-19.27q1.89-.21 2.24 1.22 1.22 11.81-5.97 20.8-.27.33-.12.73l7.91 20.29a.34.34 0 0 0 .63 0c1.89-4.72 3.97-9.13 4.76-14.22q1.64-10.54 3.34-20.99 2.38-.36 2.2 1.61c-1.53 13.21-2.01 25.46-9.22 37.15a2.43 2.4-37.5 0 0-.27 1.95q3.83 13.35 4.25 27.26.05 1.85 1.03.28c7.04-11.28 13.94-18.62 15.15-32.75q1.02-11.85.41-24.27 2.63.17 2.95 2.75c1.04 18.66.28 34.62-12.03 49.52a.44.43-67.5 0 0 .29.71q18.77 2 35.32-6.38l1.31.97q.45.34.19.84l-.59 1.12q-18.19 9.06-38.22 5.89-.5-.08-.72.37-1.72 3.41-4.31 6.13a2.45 2.44-46.4 0 0 .08 3.45c7.59 7.31 32.89 9.19 41.73 4.43q1.68-.9 3.34-1.74 1.55 2.63-.48 4.23-8.86 3.05-17.22 3.12c-8.3.07-20.39-1.44-27.26-6.54a.44.44 0 0 0-.7.34l-.45 11.72a1.72 1.66-61.5 0 0 .28 1c6.34 9.44 20.41 13.41 30.7 14.26l9.3.32q.61 1.71-1.43 2.84l-12.79-.73q-.52-.03-.71.45c-6.43 15.65-12.44 26.02-22.48 40q-2.42 1.76-5.06 4.16-.54.49-1.05.63-.8.21-1.28-.05l-.11-1.71a1.03 1-24.7 0 1 .32-.82c11.17-10.24 19.85-26 25.73-40q1.23-1.49 1.13-2.81a.8.8 0 0 0-.62-.71l-5.86-1.41q-.47-.11-.7.31-2.23 4.04-5.51 7.02c-6.98 6.53-12.95 10.83-20.4 13.47q-.49.17-.71.64-8.46 18.61-22.31 33.41-3.94 2.76-5.8.74c2.17-2.24 4.66-4.14 6.6-6.37q13.26-15.25 21.29-34.45c8.44-18.29 10.11-37.79 8.46-57.73-1.86-22.3-9.2-43.35-21.63-61.97-4.59-6.87-15.83-17.35-24.6-17.09q-.53.01-.84-.42-.5-.72-.2-2.03 4.22-.61 8.41.67Zm53.56 121.78q-6.82-2.52-11.62-7.95-.61-.7-.78.21-2.44 13.23-7.65 25.64a.4.4 0 0 0 .56.51c4.06-2.17 20.67-12.84 20.12-17.61q-.07-.59-.63-.8Z"/><path fill="#e8a500" d="M180.31 49.91q-.3 1.31.2 2.03.31.43.84.42c8.77-.26 20.01 10.22 24.6 17.09 12.43 18.62 19.77 39.67 21.63 61.97 1.65 19.94-.02 39.44-8.46 57.73l-16.88 1.8c15.67-32.78 14.71-66.75.65-99.37-5.52-12.8-13.15-22.88-23.21-31.98q-6.46-5.85-15.03-7.46 1.74-.21 3.41-.2c3.87.01 8.32-1.39 12.25-2.03Z"/><path fill="#e8a500" d="M188.72 50.58q17.3 1.19 32.3 8.39c.17 5.41-1.12 15.23-5.62 19.27q-.45.41-.73-.13-6.25-11.83-11-16.77-3.71-3.85-14.95-10.76Z"/><path fill="#5a3c17" d="M164.65 52.14q8.57 1.61 15.03 7.46c10.06 9.1 17.69 19.18 23.21 31.98 14.06 32.62 15.02 66.59-.65 99.37q-8.09 17.07-19.12 33.15-1.24 1.8-6.54 4.89-.24 1.16-1.59.14-1.22-1.97.59-3.05 4.19-2.5 6.55-5.98 9.27-13.7 16.32-28.51 13.58-26.57 12.18-55.92c-.58-12.07-3.59-23.52-7.58-35.24-5.71-16.78-20.75-42-39.59-45.78q-1.25-.25-1.82-2.08l.68-.79q.33-.38.8-.49 1.52-.37 1.53.85Z"/><path fill="#e8a500" d="M161.64 52.57q.57 1.83 1.82 2.08c18.84 3.78 33.88 29 39.59 45.78 3.99 11.72 7 23.17 7.58 35.24q1.4 29.35-12.18 55.92l-17.13-.51c8.28-23.45 9.05-50.47 4-74.85-3.55-17.15-9.55-33.36-21.4-45.87q-8.11-8.55-20.98-10.87 8.96-4.67 18.7-6.92Z"/><path fill="#5a3c17" d="M142.94 59.49q12.87 2.32 20.98 10.87c11.85 12.51 17.85 28.72 21.4 45.87 5.05 24.38 4.28 51.4-4 74.85q-7.01 19.05-17.17 35.95-2.02.68-3.31-.87l6.55-10.94q.29-.47-.16-.79c-9.39-6.69-14.97-19.64-17.82-30.19l-1.55-12.19q-.07-.58-.65-.5l-16.51 2.34q-15.48 1.9-31.71-1.62l-2.21-1.81q-.43-.35-.18-.84.34-.69 1.23-1.38c7.51 3.58 20.04 3.37 28.78 2.79 21.14-2.09 39.37-4.82 57.36-11.98a2.13 2.13 0 0 0 1.34-1.92l.26-9.3q.02-.56-.52-.45-37.29 7.65-75.45 1.02-9.02-1.95-17.91-6.3-2.55-2.36-.47-3.95 6.12 3.95 13.76 5.66c8.18 3.2 18.67 3.47 28.55 4.26 15.97 1.28 30.83-.02 46.28-2.56q2.54-.42 4.36-.99 1.2-.36 1.15-1.61l-.35-8.84q-.02-.48-.49-.41c-21.72 2.93-45.53-1.18-66.2-7q-12.44-3.5-23.26-10.09-1.36-1.81.92-2.84c10.58 5.82 21.79 10.38 32.74 12.61 21.22 4.31 35.89 6.27 54.75 4.75a1.13 1.13 0 0 0 1.02-1.28l-1.08-8.02a.68.68 0 0 0-.6-.59c-26.1-3.1-54.37-12.52-71.34-34.68q-.61-.86-.34-1.82a.83.82 3.6 0 1 .7-.61l1.64-.18c15.38 21.88 43.12 30.1 68.66 34.67q.54.09.44-.45c-3.98-21.6-14.37-48.2-36.47-55.22q-3.34-1.07-7.35.42a.6.6 0 0 1-.77-.34l-.7-1.69q1.79-1.23 5.7-1.81Zm10.14 126.82c3.05 9.04 7.75 19.49 15.27 25.31a.61.6-59.4 0 0 .92-.24l8.45-19.47q5.5-14.24 6.68-29.17.06-.84-.72-.53-15.84 6.21-32.71 8.65-.59.08-.48.67l2.59 14.78Z"/><path fill="#e8a500" d="m223.26 60.19 10.55 6.61q-1.7 10.45-3.34 20.99c-.79 5.09-2.87 9.5-4.76 14.22a.34.34 0 0 1-.63 0l-7.91-20.29q-.15-.4.12-.73 7.19-8.99 5.97-20.8Zm-86.02 1.11.7 1.69a.6.6 0 0 0 .77.34q4.01-1.49 7.35-.42c22.1 7.02 32.49 33.62 36.47 55.22q.1.54-.44.45c-25.54-4.57-53.28-12.79-68.66-34.67q9.9-13.21 21.82-20.41 1.58-.95 1.99-2.2Zm98.77 7.11 11.35 9.62q.61 12.42-.41 24.27c-1.21 14.13-8.11 21.47-15.15 32.75q-.98 1.57-1.03-.28-.42-13.91-4.25-27.26a2.43 2.4-37.5 0 1 .27-1.95c7.21-11.69 7.69-23.94 9.22-37.15Z"/><path fill="#e8a500" d="M250.31 80.78c11.47 13.11 19.78 26.75 23.58 43.85q-16.55 8.38-35.32 6.38a.44.43-67.5 0 1-.29-.71c12.31-14.9 13.07-30.86 12.03-49.52Zm-138.88 5.74c16.97 22.16 45.24 31.58 71.34 34.68a.68.68 0 0 1 .6.59l1.08 8.02a1.13 1.13 0 0 1-1.02 1.28c-18.86 1.52-33.53-.44-54.75-4.75-10.95-2.23-22.16-6.79-32.74-12.61 3.9-10.4 9.86-18.04 15.49-27.21Z"/><path fill="#e8a500" d="M95.02 116.57q10.82 6.59 23.26 10.09c20.67 5.82 44.48 9.93 66.2 7q.47-.07.49.41l.35 8.84q.05 1.25-1.15 1.61-1.82.57-4.36.99c-15.45 2.54-30.31 3.84-46.28 2.56-9.88-.79-20.37-1.06-28.55-4.26q-4.44-11.54-8.54-22.75-.42-1.16-2.1-1.35.71-1.6.68-3.14Z"/><path fill="#b9890b" d="M94.34 119.71q1.68.19 2.1 1.35 4.1 11.21 8.54 22.75-7.64-1.71-13.76-5.66-.17-9.96 3.12-18.44Z"/><path fill="#e8a500" d="m274.8 127.56-.15.76q-.1.47-.04.94l2.09 16.83q-1.66.84-3.34 1.74c-8.84 4.76-34.14 2.88-41.73-4.43a2.45 2.44-46.4 0 1-.08-3.45q2.59-2.72 4.31-6.13.22-.45.72-.37 20.03 3.17 38.22-5.89Z"/><path fill="#b9890b" d="M91.69 142.1q8.89 4.35 17.91 6.3-.57 1.69 2.05 4.94 10.33 12.75 14.96 17.69c-8.74.58-21.27.79-28.78-2.79q-4.75-12.42-6.14-26.14Z"/><path fill="#e8a500" d="m276.22 150.32-3.52 15.12q-3.33-.15-4.7 1.59-4.08 5.16-6.43 7.19c-10.29-.85-24.36-4.82-30.7-14.26a1.72 1.66-61.5 0 1-.28-1l.45-11.72a.44.44 0 0 1 .7-.34c6.87 5.1 18.96 6.61 27.26 6.54q8.36-.07 17.22-3.12Zm-149.61 20.71q-4.63-4.94-14.96-17.69-2.62-3.25-2.05-4.94 38.16 6.63 75.45-1.02.54-.11.52.45l-.26 9.3a2.13 2.13 0 0 1-1.34 1.92c-17.99 7.16-36.22 9.89-57.36 11.98Zm51.11 20.88q-12.2-.96-24.64-5.6l-2.59-14.78q-.11-.59.48-.67 16.87-2.44 32.71-8.65.78-.31.72.53-1.18 14.93-6.68 29.17Zm65.19-18.75c.55 4.77-16.06 15.44-20.12 17.61a.4.4 0 0 1-.56-.51q5.21-12.41 7.65-25.64.17-.91.78-.21 4.8 5.43 11.62 7.95.56.21.63.8Z"/><path fill="#b9890b" d="m272.7 165.44-1.83 9.1-9.3-.32q2.35-2.03 6.43-7.19 1.37-1.74 4.7-1.59Z"/><path fill="#e8a500" d="M149.41 184.24q-10.74-2.85-18.71-10.35l16.51-2.34q.58-.08.65.5l1.55 12.19Z"/><path fill="#b9890b" d="M98.99 172.27q16.23 3.52 31.71 1.62 7.97 7.5 18.71 10.35c2.85 10.55 8.43 23.5 17.82 30.19q.45.32.16.79l-6.55 10.94c-14.96-6-27.16-10.09-40.06-21.63a1.07 1.05-28.7 0 0-.89-.25c-21.54 3.97-41.4 11.02-58.91 24.46q-5.19 3.98-8.55 9.18a.69.68 10.5 0 0 .72 1.04q12.15-2.57 24.55-.55c3.81.63 10 4.53 6.79 8.82q-2.68 3.57-6.78 5.28-12.74 5.32-24.83-1.52-4.38-2.47-5.07-7.2-.1-.7-.8-.57-13.98 2.73-26.68 9.15-.56.28-1-.16l-.27-.28a1.53 1.53 0 0 1 .4-2.46q13.62-6.79 28.6-9.64.46-.09.64-.52 2.6-6.32 6.76-9.85 19.73-16.71 44.78-23.36 8.32-2.2 16.68-4.37.55-.14.17-.57-11.65-12.81-18.1-28.89Zm-18.68 70.17c-6.77-3.62-20.57-1.94-28.4-.48q-.52.1-.6.63c-.41 2.6.45 4.39 2.8 5.79q12.75 7.55 25.82-.46c2.15-1.32 3.17-3.99.38-5.48Z"/><path fill="#e8a500" d="m252.01 179.31-10.97 3.15q-.48.14-.57-.35-.03-.17-.02-.4 3.28-2.98 5.51-7.02.23-.42.7-.31l5.86 1.41a.8.8 0 0 1 .62.71q.1 1.32-1.13 2.81Z"/><path fill="#b9890b" d="M269.44 177.38c-7.8 16.73-20.7 29.14-35.98 39.72 10.04-13.98 16.05-24.35 22.48-40q.19-.48.71-.45l12.79.73Zm-17.43 1.93c-5.88 14-14.56 29.76-25.73 40a1.03 1-24.7 0 0-.32.82l.11 1.71q-1.47.05-2.63.6-12.62 5.95-26.41 6.79 13.85-14.8 22.31-33.41.22-.47.71-.64c7.45-2.64 13.42-6.94 20.4-13.47q-.01.23.02.4.09.49.57.35l10.97-3.15Zm-98.93 7q12.44 4.64 24.64 5.6l-8.45 19.47a.61.6-59.4 0 1-.92.24c-7.52-5.82-12.22-16.27-15.27-25.31Z"/><path fill="#b9890b" d="M219.12 189.15q-8.03 19.2-21.29 34.45c-1.94 2.23-4.43 4.13-6.6 6.37l-14.65-.98q5.3-3.09 6.54-4.89 11.03-16.08 19.12-33.15l16.88-1.8Zm-20.67 2.44q-7.05 14.81-16.32 28.51-2.36 3.48-6.55 5.98-1.81 1.08-.59 3.05l-10.84-2.1q10.16-16.9 17.17-35.95l17.13.51Z"/></svg>